<?xml version="1.0" standalone="no"?>
<!DOCTYPE svg PUBLIC "-//W3C//DTD SVG 20010904//EN"
 "http://www.w3.org/TR/2001/REC-SVG-20010904/DTD/svg10.dtd">
<svg version="1.0" xmlns="http://www.w3.org/2000/svg"
 width="512.000000pt" height="512.000000pt" viewBox="0 0 512.000000 512.000000"
 preserveAspectRatio="xMidYMid meet">
<metadata>
Created by potrace 1.14, written by Peter Selinger 2001-2017
</metadata>
<g transform="translate(0.000000,512.000000) scale(0.100000,-0.100000)"
fill="#000000" stroke="none">
<path d="M2430 5110 c-19 -4 -51 -10 -70 -14 -187 -36 -523 -211 -1325 -689
-301 -180 -480 -316 -590 -448 -46 -55 -117 -181 -145 -258 -16 -44 -29 -82
-29 -84 1 -1 -4 -20 -9 -42 -6 -22 -13 -60 -16 -85 -3 -25 -8 -56 -11 -69 -15
-76 -20 -304 -20 -861 0 -711 4 -801 44 -995 54 -254 180 -442 416 -616 44
-33 85 -63 90 -67 9 -6 185 -117 255 -160 78 -48 533 -312 538 -312 3 0 13 -6
21 -14 9 -7 41 -27 71 -43 30 -16 93 -51 139 -77 126 -72 305 -159 408 -200
84 -32 112 -41 208 -61 17 -4 80 -8 140 -10 185 -7 315 29 580 159 94 46 240
124 325 173 85 49 175 101 200 115 137 76 531 312 629 375 190 124 321 231
409 337 81 97 167 287 186 411 2 11 6 36 10 55 14 78 16 99 23 205 10 142 10
1296 1 1440 -27 403 -120 612 -369 830 -76 67 -310 228 -373 256 -14 7 -26 16
-26 21 0 4 -5 8 -11 8 -6 0 -34 15 -62 33 -29 18 -63 39 -77 47 -14 8 -160 93
-325 189 -640 372 -831 452 -1080 456 -66 1 -136 -1 -155 -5z"/>
</g>
</svg>
